<svg xmlns="http://www.w3.org/2000/svg" width="239.943" height="261.473" viewBox="0 0 239.943 261.473">
  <g id="Group_331" data-name="Group 331" transform="translate(-337.599 -157.036)">
    <g id="vote" transform="translate(337.599 157.036)">
      <path id="Path_1398" data-name="Path 1398" d="M216.052,143.618c.013-.026.029-.05.042-.075l-8.258-11.879a7.643,7.643,0,0,0-6.276-3.281H61.7a7.876,7.876,0,0,0-6.468,3.381L23.65,177.193h0a4.814,4.814,0,0,1,3.516-1.523H236.83Z" transform="translate(-22.337 -62.82)" fill="#f7cf9c"/>
      <g id="Group_327" data-name="Group 327" transform="translate(0 65.564)">
        <path id="Path_1399" data-name="Path 1399" d="M72.6,131.765a7.876,7.876,0,0,1,6.468-3.381H61.7a7.876,7.876,0,0,0-6.468,3.381L23.65,177.193h0a4.814,4.814,0,0,1,3.516-1.523H42.078Z" transform="translate(-22.337 -128.384)" fill="#eab883"/>
        <path id="Path_1400" data-name="Path 1400" d="M234.706,219.945H25.913a4.834,4.834,0,0,0-4.834,4.834V356.336a12.759,12.759,0,0,0,12.759,12.759H226.782a12.759,12.759,0,0,0,12.759-12.759V224.779A4.835,4.835,0,0,0,234.706,219.945Z" transform="translate(-21.079 -173.186)" fill="#eab883"/>
      </g>
      <path id="Path_1401" data-name="Path 1401" d="M36.86,356.336V224.779a4.834,4.834,0,0,1,4.834-4.834H25.913a4.834,4.834,0,0,0-4.834,4.834V356.336a12.759,12.759,0,0,0,12.759,12.759H49.619A12.76,12.76,0,0,1,36.86,356.336Z" transform="translate(-21.079 -107.622)" fill="#e0a773"/>
      <path id="Path_1402" data-name="Path 1402" d="M173.709,87.852,151.337,74.936a5.59,5.59,0,0,1-2.046-7.636l37.24-64.5A5.59,5.59,0,0,1,194.167.751L242.69,28.766a5.59,5.59,0,0,1,2.046,7.636l-29.7,51.45Z" transform="translate(-83.448 -0.001)" fill="#95c979"/>
      <path id="Path_1403" data-name="Path 1403" d="M200.388,11a6.661,6.661,0,0,1,5.761-3.33L194.168.75A5.59,5.59,0,0,0,186.532,2.8l-37.24,64.5a5.59,5.59,0,0,0,2.046,7.636l9.1,5.255Z" transform="translate(-83.448 0)" fill="#80b166"/>
      <path id="Path_1404" data-name="Path 1404" d="M233.561,317.943h0a13.921,13.921,0,0,1-13.921-13.921H95.6a13.921,13.921,0,0,1-13.921,13.921h0a2.492,2.492,0,0,0-2.492,2.492v34.446a2.583,2.583,0,0,0,2.492,2.492A13.921,13.921,0,0,1,95.6,371.295H219.639a13.921,13.921,0,0,1,13.921-13.921h0A3.443,3.443,0,0,0,237,353.931V321.385A3.442,3.442,0,0,0,233.561,317.943Z" transform="translate(-49.514 -148.762)" fill="#70b5e8"/>
      <path id="Path_1405" data-name="Path 1405" d="M97.464,350.535h0a2.492,2.492,0,0,1-2.492-2.492v-20.77a2.492,2.492,0,0,1,2.492-2.492h0c9.257-2.148,14.912-14.115,13.921-20.759H95.6a13.921,13.921,0,0,1-13.921,13.921h0a2.492,2.492,0,0,0-2.492,2.492v34.446a2.492,2.492,0,0,0,2.492,2.492h0A13.921,13.921,0,0,1,95.6,371.294h15.781C112.377,364.65,106.722,352.683,97.464,350.535Z" transform="translate(-49.514 -148.761)" fill="#52a5d8"/>
      <g id="Group_328" data-name="Group 328" transform="translate(42.146 136.141)">
        <path id="Path_1406" data-name="Path 1406" d="M231.587,274.474H107.551a3.945,3.945,0,0,1,0-7.89H231.587a3.945,3.945,0,0,1,0,7.89Z" transform="translate(-103.606 -266.584)" fill="#f7cf9c"/>
        <path id="Path_1407" data-name="Path 1407" d="M231.587,465.722H107.551a3.945,3.945,0,0,1,0-7.89H231.587a3.945,3.945,0,0,1,0,7.89Z" transform="translate(-103.606 -360.164)" fill="#f7cf9c"/>
      </g>
      <path id="Path_1408" data-name="Path 1408" d="M425.645,182.289l-2.733-2.664c-3.959-3.858-1.633-8.564-1.581-10.508a4.352,4.352,0,0,0-3.666-5.046c-1.854-.547-7.105.175-9.539-4.756l-1.692-3.429a4.352,4.352,0,0,0-5.932-1.927c-1.822.647-5.635,4.313-10.5,1.754l-3.336-1.754a4.354,4.354,0,0,0-5.931,1.927c-1.105,1.614-2.041,6.849-7.49,7.641l-3.741.544a4.351,4.351,0,0,0-3.666,5.046c.051,1.915,2.355,6.672-1.581,10.508l-2.733,2.664a4.352,4.352,0,0,0,0,6.237l2.733,2.664c3.958,3.859,1.633,8.564,1.581,10.508a4.351,4.351,0,0,0,3.666,5.046c1.851.546,7.1-.175,9.539,4.756,1.1,1.605,1.707,5.859,5.6,5.859,1.683,0,2.458-.853,5.357-2.257,4.9-2.576,8.626,1.088,10.5,1.754a4.352,4.352,0,0,0,5.932-1.927l1.692-3.429c2.447-4.959,7.647-4.2,9.539-4.756a4.351,4.351,0,0,0,3.666-5.046l-.633-3.693c-.936-5.456,3.728-7.9,4.948-9.479A4.353,4.353,0,0,0,425.645,182.289Z" transform="translate(-187.018 -75.089)" fill="#70b5e8"/>
      <path id="Path_1409" data-name="Path 1409" d="M237.609,172.19H153.926a3.945,3.945,0,0,1,0-7.89h83.682a3.945,3.945,0,0,1,0,7.89Z" transform="translate(-84.152 -80.394)" fill="#f9dec0"/>
      <g id="Group_329" data-name="Group 329" transform="translate(37.867 100.394)">
        <path id="Path_1410" data-name="Path 1410" d="M405.677,218.595l-6.32-7.851A3.945,3.945,0,1,1,405.5,205.8l3.365,4.18,10.473-12.034a3.946,3.946,0,0,1,5.953,5.18l-13.567,15.589A3.946,3.946,0,0,1,405.677,218.595Z" transform="translate(-243.614 -196.586)" fill="#efefef"/>
        <path id="Path_1411" data-name="Path 1411" d="M131.509,341.592c0-2.491,6.139-4.364,7-1.623L145,363.752c6.807-24.349,6.061-24.227,7.3-24.826,2.043-.984,6.685.636,6.05,3.175-9.393,29.507-7.914,29.01-10.361,30.087-2.521,1.109-6.943.716-7.719-1.808C131.552,341.826,131.509,342.009,131.509,341.592Z" transform="translate(-92.862 -266.083)" fill="#efefef"/>
        <path id="Path_1412" data-name="Path 1412" d="M200.095,372.794c-7.558,0-11.358-4.053-11.358-10.94.2-11.014-1.2-16.87,3.292-20.746,3.206-2.768,8.813-2.941,12.563-1.9,4.078,1.134,6.907,4.486,6.907,10.361-.457,10.321,1.514,16.6-3.291,20.746C206.018,372.205,203,372.794,200.095,372.794Zm3.06-26.749a4.7,4.7,0,0,0-6.1,0,4.885,4.885,0,0,0-1.09,3.524c.27,11.19-.681,14,1.09,15.808a4.055,4.055,0,0,0,3.037,1.113c2.894,0,4.172-1.753,4.172-4.636C203.993,350.7,204.963,347.852,203.154,346.044Z" transform="translate(-120.838 -266.084)" fill="#efefef"/>
        <path id="Path_1413" data-name="Path 1413" d="M261.137,339.485a4.989,4.989,0,0,1-.046,4.5c-.921,1.612-2.17.726-8.02.973v25.173c0,2.95-7.232,2.972-7.232,0V344.956c-5.862-.248-7.1.632-8.02-.973-1.082-1.892-.632-5.517,1.622-5.517C239.441,338.465,260.222,337.662,261.137,339.485Z" transform="translate(-144.606 -265.923)" fill="#efefef"/>
        <path id="Path_1414" data-name="Path 1414" d="M297.832,352.739c6.576.229,7.655-.563,8.577.857a3.646,3.646,0,0,1,.046,3.8c-.841,1.488-2.141.668-8.623.9v7.882c12.193.282,13.08-.7,14.047.95,1.089,1.86.611,5.355-1.623,5.355-16.77-.173-16.987.413-18.683-.556-1.744-1-.647-.183-.973-31.107,0-1.583,1.709-2.226,3.152-2.226,16.718.311,17.282-.742,18.173,1a4.707,4.707,0,0,1-.047,4.358c-.964,1.648-1.7.665-14.048.95v7.835Z" transform="translate(-170.685 -266.057)" fill="#efefef"/>
        <path id="Path_1416" data-name="Path 1416" d="M297.832,352.739c6.576.229,7.655-.563,8.577.857a3.646,3.646,0,0,1,.046,3.8c-.841,1.488-2.141.668-8.623.9v7.882c12.193.282,13.08-.7,14.047.95,1.089,1.86.611,5.355-1.623,5.355-16.77-.173-16.987.413-18.683-.556-1.744-1-.647-.183-.973-31.107,0-1.583,1.709-2.226,3.152-2.226,16.718.311,17.282-.742,18.173,1a4.707,4.707,0,0,1-.047,4.358c-.964,1.648-1.7.665-14.048.95v7.835Z" transform="translate(-290.555 -266.197)" fill="#efefef"/>
        <text id="_-" data-name="-" transform="translate(18.77 101.7)" fill="#efefef" font-size="46" font-family="Nunito-Bold, Nunito" font-weight="700"><tspan x="0" y="0">-</tspan></text>
      </g>
      <path id="Path_1415" data-name="Path 1415" d="M379.21,197.44a31.946,31.946,0,0,1,9.63-42.335l-2.176-1.144a4.354,4.354,0,0,0-5.931,1.927c-1.105,1.614-2.041,6.849-7.49,7.641l-3.741.544a4.351,4.351,0,0,0-3.666,5.046c.051,1.915,2.355,6.672-1.581,10.508l-2.733,2.664a4.352,4.352,0,0,0,0,6.237l2.733,2.664c3.958,3.859,1.633,8.564,1.581,10.508a4.351,4.351,0,0,0,3.666,5.046c1.851.546,7.1-.175,9.539,4.756,1.1,1.605,1.707,5.859,5.6,5.859,1.683,0,2.458-.853,5.357-2.257,4.9-2.576,8.626,1.088,10.5,1.754a4.352,4.352,0,0,0,5.932-1.927l.75-1.52A31.935,31.935,0,0,1,379.21,197.44Z" transform="translate(-187.018 -75.091)" fill="#52a5d8"/>
    </g>
    <text id="RT" transform="translate(414.915 202.97) rotate(30)" fill="#efefef" font-size="47" font-family="Nunito-Bold, Nunito" font-weight="700"><tspan x="0" y="0">RT</tspan></text>
  </g>
</svg>
