<svg xmlns="http://www.w3.org/2000/svg" width="140" height="140" viewBox="0 0 140 140">
  <g id="Group_353" data-name="Group 353" transform="translate(-14 -246)">
    <path id="Screen_Shot_2021-03-04_at_14.22.20" data-name="Screen Shot 2021-03-04 at 14.22.20" d="M6,0H134a6,6,0,0,1,6,6V140a0,0,0,0,1,0,0H0a0,0,0,0,1,0,0V6A6,6,0,0,1,6,0Z" transform="translate(14 246)" fill="#95c979"/>
    <g id="man" transform="translate(-31.698 272.488)">
      <path id="Path_1424" data-name="Path 1424" d="M153.367,101.952v9.6a1.956,1.956,0,0,1-1.957,1.957H79.985a1.956,1.956,0,0,1-1.957-1.957v-9.6a18.243,18.243,0,0,1,18.245-18.24,10.128,10.128,0,0,0,8.5-4.613c1.814-2.787,1.627-5.211,1.627-7.169l.037-.09A24.219,24.219,0,0,1,91.481,49.456v-.766a6.033,6.033,0,0,1-6.115-6V32.522c-.078-3.539.083-16.022,9.1-24.713,10.484-10.1,27.1-9.278,39.132-3.872a.491.491,0,0,1-.017.9l-3.138,1.292a.49.49,0,0,0,.135.939l1.524.164A24.69,24.69,0,0,1,150.378,18.57a.525.525,0,0,1-.064.6,14.8,14.8,0,0,0-4.041,10.166V42.688a6,6,0,0,1-6,6h-.357v.766a24.219,24.219,0,0,1-14.958,22.382l.037.09c0,1.9-.2,4.359,1.627,7.169a10.128,10.128,0,0,0,8.5,4.613,18.243,18.243,0,0,1,18.245,18.24Z" transform="translate(0 0)" fill="#ffdfba"/>
      <path id="Path_1425" data-name="Path 1425" d="M153.367,346.22v9.6a1.957,1.957,0,0,1-1.957,1.957H79.985a1.957,1.957,0,0,1-1.957-1.957v-9.6a18.244,18.244,0,0,1,18.244-18.24,10.128,10.128,0,0,0,8.5-4.613,16.791,16.791,0,0,0,21.843,0,10.128,10.128,0,0,0,8.5,4.613,18.244,18.244,0,0,1,18.244,18.24Z" transform="translate(0 -244.268)" fill="#fe4f60"/>
      <path id="Path_1426" data-name="Path 1426" d="M173.008,18.571a.519.519,0,0,1-.063.6A14.808,14.808,0,0,0,168.9,29.34V42.688a6.014,6.014,0,0,1-6.36,6V33.582A11.741,11.741,0,0,0,150.8,21.84h-24.95a11.741,11.741,0,0,0-11.741,11.741V48.691a6.033,6.033,0,0,1-6.115-6V32.522c-.078-3.539.083-16.022,9.1-24.713,10.483-10.1,27.1-9.278,39.131-3.871a.49.49,0,0,1-.016.9L153.074,6.13a.489.489,0,0,0,.134.939l1.524.164A24.679,24.679,0,0,1,173.008,18.571Z" transform="translate(-22.631 0)" fill="#42434d"/>
      <path id="Path_1427" data-name="Path 1427" d="M181.46,116.9a24.217,24.217,0,0,1-24.216,24.216c-12.6,0-24.216-9.792-24.216-24.982V101.027a11.741,11.741,0,0,1,11.741-11.741h24.95a11.741,11.741,0,0,1,11.741,11.741Z" transform="translate(-41.547 -67.446)" fill="#ffebd2"/>
      <path id="Path_1428" data-name="Path 1428" d="M288.855,434.97h-5.871a1.957,1.957,0,1,1,0-3.914h5.871a1.957,1.957,0,0,1,0,3.914Z" transform="translate(-153.345 -325.616)" fill="#fff"/>
      <path id="Path_1429" data-name="Path 1429" d="M151.761,144.364c3.981,2.491.842,8.6-3.516,6.85a24.22,24.22,0,0,1-15.217-22.487V112.851a11.69,11.69,0,0,1,2.06-6.645,2.892,2.892,0,0,1,5.278,1.753v15.875A24.04,24.04,0,0,0,151.761,144.364Z" transform="translate(-41.547 -79.27)" fill="#fff3e4"/>
      <path id="Path_1430" data-name="Path 1430" d="M212.041,297.793a24.283,24.283,0,0,1-19.143,0,15.159,15.159,0,0,0,.276-4.016l.037-.091a24.266,24.266,0,0,0,18.517,0l.037.091A15.155,15.155,0,0,0,212.041,297.793Z" transform="translate(-86.772 -221.848)" fill="#ffd6a6"/>
      <path id="Path_1431" data-name="Path 1431" d="M106.129,333.888a9.951,9.951,0,0,1-2.915.45,18.292,18.292,0,0,0-18.337,18.178v1.839a3.425,3.425,0,0,1-3.425,3.424H79.985a1.957,1.957,0,0,1-1.957-1.957v-9.6a18.244,18.244,0,0,1,18.244-18.24,10.128,10.128,0,0,0,8.5-4.613,16.93,16.93,0,0,0,2.327,1.669,4.887,4.887,0,0,1-.974,8.854Z" transform="translate(0 -244.268)" fill="#ff6d7a"/>
      <path id="Path_1432" data-name="Path 1432" d="M260.733,333.888a9.95,9.95,0,0,0,2.915.45,18.292,18.292,0,0,1,18.337,18.178v1.839a3.425,3.425,0,0,0,3.425,3.424h1.468a1.957,1.957,0,0,0,1.957-1.957v-9.6a18.244,18.244,0,0,0-18.244-18.24,10.128,10.128,0,0,1-8.5-4.613,16.93,16.93,0,0,1-2.327,1.669,4.887,4.887,0,0,0,.974,8.854Z" transform="translate(-135.466 -244.268)" fill="#e84857"/>
      <path id="Path_1433" data-name="Path 1433" d="M156.212,4.837c-2.876,1.184-3.286,1.445-4.283,1.29-16.064-2.49-30.159,4.157-34.945,19.761v0a11.683,11.683,0,0,0-2.872,7.69V42.76c0,3.96-6.115,4.235-6.115-.072V32.522c-.078-3.539.083-16.022,9.1-24.713,10.484-10.1,27.1-9.278,39.132-3.872a.491.491,0,0,1-.017.9Z" transform="translate(-22.631 0)" fill="#4d4e59"/>
    </g>
  </g>
</svg>
