<svg id="sand-clock" xmlns="http://www.w3.org/2000/svg" width="263.29" height="263.29" viewBox="0 0 263.29 263.29">
  <path id="Path_1493" data-name="Path 1493" d="M163.645,46.783V8.228a8.287,8.287,0,0,0-2.4-5.825A8.189,8.189,0,0,0,155.417,0H40.228A8.231,8.231,0,0,0,32,8.228V46.783A73.563,73.563,0,0,0,53.689,99.145l16.044,16.044L53.689,131.234A73.591,73.591,0,0,0,32,183.6v38.572a8.287,8.287,0,0,0,2.4,5.825,8.189,8.189,0,0,0,5.825,2.4l115.189-.016a8.231,8.231,0,0,0,8.228-8.228V183.579a73.563,73.563,0,0,0-21.689-52.362l-16.044-16.028,16.044-16.061A73.5,73.5,0,0,0,163.645,46.783Z" transform="translate(-15.544)" fill="#eceff1"/>
  <g id="Group_354" data-name="Group 354">
    <path id="Path_1494" data-name="Path 1494" d="M8.228,16.456A8.228,8.228,0,0,1,8.228,0h148.1a8.228,8.228,0,0,1,0,16.456Z" fill="#70b5e8"/>
    <path id="Path_1495" data-name="Path 1495" d="M156.328,432.456H8.228A8.252,8.252,0,0,1,0,424.228H0A8.252,8.252,0,0,1,8.228,416h148.1a8.252,8.252,0,0,1,8.228,8.228h0A8.252,8.252,0,0,1,156.328,432.456Z" transform="translate(0 -202.077)" fill="#70b5e8"/>
  </g>
  <g id="Group_355" data-name="Group 355" transform="translate(32.911 32.911)">
    <path id="Path_1496" data-name="Path 1496" d="M64,64V77.872A57.248,57.248,0,0,0,80.867,118.6s32.5,25.506,32.5,27.678h0c0-2.172,32.5-27.695,32.5-27.695a57.21,57.21,0,0,0,16.867-40.711V64Z" transform="translate(-64 -64)" fill="#b0bec5"/>
    <path id="Path_1497" data-name="Path 1497" d="M64,338.278V324.406a57.248,57.248,0,0,1,16.867-40.728c0,.016,32.5-25.506,32.5-27.678h0c0,2.172,32.5,27.695,32.5,27.695a57.22,57.22,0,0,1,16.867,40.728v13.856Z" transform="translate(-64 -157.266)" fill="#b0bec5"/>
  </g>
  <path id="Path_1498" data-name="Path 1498" d="M249.595,334.641h-8.228V304.3a73.564,73.564,0,0,0-21.688-52.362l-3.439-3.423A89.891,89.891,0,0,0,201.989,351.1h47.606a8.228,8.228,0,1,0,0-16.456Z" transform="translate(-93.266 -120.718)" fill="#fafafa"/>
  <circle id="Ellipse_20" data-name="Ellipse 20" cx="74.411" cy="74.411" r="74.411" transform="translate(114.467 114.467)" fill="#52a5d8"/>
  <path id="Path_1499" data-name="Path 1499" d="M384.911,362.05a8.264,8.264,0,0,1-5.825-2.4L354.4,334.964a8.287,8.287,0,0,1-2.4-5.825V296.228a8.228,8.228,0,0,1,16.456,0v29.5l22.281,22.281a8.22,8.22,0,0,1-5.825,14.037Z" transform="translate(-170.988 -139.899)" fill="#fafafa"/>
</svg>
