<svg xmlns="http://www.w3.org/2000/svg" width="158.515" height="253.076" viewBox="0 0 158.515 253.076">
  <g id="success_1_" data-name="success (1)" transform="translate(0)">
    <path id="Path_1485" data-name="Path 1485" d="M106.751,410.884H51.765a7.538,7.538,0,0,1-7.538-7.538V372.092l-34.7-23.01a19.993,19.993,0,0,1,20.8-34.152c.079.046.158.1.236.147L56.417,331.99a35.051,35.051,0,0,1,45.683,0l25.857-16.914c.077-.05.156-.1.234-.147a19.994,19.994,0,0,1,20.8,34.152l-34.7,23.01v31.254A7.538,7.538,0,0,1,106.751,410.884Zm0,0" transform="translate(0 -157.808)" fill="#70b5e8"/>
    <path id="Path_1486" data-name="Path 1486" d="M224.412,312.646a19.876,19.876,0,0,0-15.132,2.282c-.077.048-.156.1-.234.149L183.189,331.99a34.768,34.768,0,0,0-22.842-8.465v87.358h27.493a7.538,7.538,0,0,0,7.538-7.538V372.091l34.7-23.01a19.994,19.994,0,0,0-5.667-36.436Zm0,0" transform="translate(-81.09 -157.808)" fill="#52a5d8"/>
    <path id="Path_1487" data-name="Path 1487" d="M124.507,291.812a35.031,35.031,0,1,1,35.031-35.031A35.071,35.071,0,0,1,124.507,291.812Zm0,0" transform="translate(-45.249 -112.141)" fill="#f7cf9c"/>
    <path id="Path_1488" data-name="Path 1488" d="M160.348,221.75v70.062a35.031,35.031,0,1,0,0-70.062Zm0,0" transform="translate(-81.09 -112.141)" fill="#eab883"/>
    <path id="Path_1489" data-name="Path 1489" d="M145.617,0H49.168A13.323,13.323,0,0,0,35.859,13.307V74.7A13.323,13.323,0,0,0,49.168,88.007H80.714L91.4,102.036a7.539,7.539,0,0,0,12,0l10.683-14.029h31.544A13.323,13.323,0,0,0,158.926,74.7V13.307A13.323,13.323,0,0,0,145.617,0Zm0,0" transform="translate(-18.134)" fill="#e1f1fa"/>
    <path id="Path_1490" data-name="Path 1490" d="M208.572,0H160.348V105.007a7.535,7.535,0,0,0,6-2.972l10.683-14.029h31.544A13.323,13.323,0,0,0,221.881,74.7V13.307A13.323,13.323,0,0,0,208.572,0Zm0,0" transform="translate(-81.09)" fill="#cdebfc"/>
    <path id="Path_1491" data-name="Path 1491" d="M130.921,88.157a7.513,7.513,0,0,1-5.329-2.207L113.569,73.927a7.538,7.538,0,1,1,10.66-10.66l6.694,6.692,16-16a7.538,7.538,0,0,1,10.66,10.66l-21.328,21.33A7.517,7.517,0,0,1,130.921,88.157Zm0,0" transform="translate(-56.316 -26.173)" fill="#06ccab"/>
    <path id="Path_1492" data-name="Path 1492" d="M171.693,53.963,160.348,65.309V86.546a7.5,7.5,0,0,0,.678-.595l21.328-21.328a7.538,7.538,0,0,0-10.66-10.66Zm0,0" transform="translate(-81.09 -26.173)" fill="#1cadb5"/>
  </g>
</svg>
